<svg width="96" height="96" viewBox="0 0 96 96" fill="none" xmlns="http://www.w3.org/2000/svg">
<g clip-path="url(#clip0_103_5)">
<path d="M37.6 42L56.68 8.96C53.88 8.36 51 8 48 8C38.4 8 29.6 11.4 22.72 17L37.36 42.4L37.6 42ZM86.16 36C82.48 24.32 73.56 14.96 62.16 10.64L47.52 36H86.16ZM87.2 40H57.24L58.4 42L77.44 75C84 67.88 88 58.44 88 48C88 45.24 87.72 42.6 87.2 40ZM34.16 48L18.56 21C12.04 28.12 8 37.56 8 48C8 50.76 8.28 53.4 8.8 56H38.76L34.16 48ZM9.84 60C13.52 71.68 22.44 81.04 33.84 85.36L48.48 60H9.84ZM54.92 60L39.32 87.04C42.12 87.64 45 88 48 88C57.6 88 66.4 84.6 73.28 79L58.64 53.6L54.92 60Z" fill="black"/>
</g>
<defs>
<clipPath id="clip0_103_5">
<rect width="96" height="96" fill="white"/>
</clipPath>
</defs>
</svg>
